<svg xmlns="http://www.w3.org/2000/svg" xmlns:xlink="http://www.w3.org/1999/xlink" width="84" height="84" viewBox="0 0 84 84"><defs><style>.a{clip-path:url(#b);}.b{fill:#860171;}.c{fill:#84c430;}</style><clipPath id="b"><rect width="84" height="84"/></clipPath></defs><g id="a" class="a"><rect class="b" width="84" height="84" transform="translate(0.001 0.096)"/><path class="c" d="M6.094,3.726A3.585,3.585,0,0,1,9.52,0a3.587,3.587,0,0,1,3.428,3.726A3.583,3.583,0,0,1,9.52,7.452,3.593,3.593,0,0,1,6.094,3.726m55.182,6.388-5.605.5v9.71c0,2.794,2.082,5.642,6.9,6.166a37.738,37.738,0,0,0,4.115.291c2.827.051,2.864,3.3-.1,3.346-3.228.056-10.064.233-10.064.233V39.89a70.353,70.353,0,0,0,9.592-.466c3.134-.564,7.6-2.189,7.647-9.012S74,8.616,74,8.616l-3.793.319s.112,6.055.112,9.78c0,6.544-9.031,5.61-9.026-.093,0-5.905-.019-8.525-.019-8.525m-46.72.815s-.158,9.748,0,15.572.764,13.7,9.38,13.7S32.9,31.192,33.055,26.8s.207-17.444.207-17.444l-3.2.165a132.922,132.922,0,0,1-.5,15.406c-.831,6.446-9.846,7.722-10.712-.806a115.106,115.106,0,0,1-.319-13.8ZM7.633,9.128s.019,10.728.019,15.281S5.286,31.372,0,30.906v9.34c6.131,0,11.336-1.041,11.336-9.547V9.361ZM52.765,20.08V8.383c-7.193,0-17.258,1.719-17.258,11.962,0,2.827.033,4.806.088,6.427.326,8.982,5.822,12.321,16.219,12.321v-7.4a64.657,64.657,0,0,1-8.008-.466c-5.433-.612-6.551-10.09,0-10.556s8.951-.587,8.951-.587" transform="translate(5 22)"/></g></svg>