<svg xmlns="http://www.w3.org/2000/svg" xmlns:xlink="http://www.w3.org/1999/xlink" width="84" height="84" viewBox="0 0 84 84"><defs><style>.a{clip-path:url(#b);}.b{fill:#fff;}.c{fill:#ef7d00;}</style><clipPath id="b"><rect width="84" height="84"/></clipPath></defs><g id="a" class="a"><rect width="84" height="84" transform="translate(0.001 0.096)"/><g transform="translate(5 36.001)"><path class="b" d="M30.868,7.739h-3.42a1.474,1.474,0,0,0-1.334.855l-2.154,4.782L23.95,7.741H20.736A1.472,1.472,0,0,0,19.4,8.6h0L14.414,19.667l3.366.006L21.228,12.3l.011,7.376h2.975l3.607-7.355-.009,7.36h3.054Z" transform="translate(-14.414 -7.514)"/><path class="b" d="M47.611,7.738H45.66A1.16,1.16,0,0,0,44.5,8.89h0V19.685h3.109Z" transform="translate(-26.126 -7.514)"/><path class="b" d="M59.984,10.369V7.738H52.877a1.155,1.155,0,0,0-1.135,1.155v1.475h2.569v9.316h3.11V10.369Z" transform="translate(-28.946 -7.514)"/><path class="b" d="M88.162,17.046V14.988h3.507v-2.63H88.162V10.364h3.7V7.733H86.213a1.16,1.16,0,0,0-1.156,1.14h0v10.8h6.8V17.045H88.162Z" transform="translate(-41.915 -7.512)"/><path class="b" d="M76.194,11.409c0-2.551-1.786-3.675-4.145-3.675h-3.5a1.16,1.16,0,0,0-1.16,1.157V19.677H70.5V15.084h.033l2.934,4.593h3.866l-3.753-4.9a3.212,3.212,0,0,0,2.611-3.374M70.5,13.38Zm2.46-1.78c0,1.3-1.135,1.491-2.154,1.491h-.015a.289.289,0,0,0-.29.289V10.111H70.8c1.019,0,2.155.193,2.155,1.491" transform="translate(-35.038 -7.513)"/><path class="c" d="M109.5,19.674V7.734h-3.853a1.16,1.16,0,0,0-1.16,1.157V10.3h1.893v9.372H109.5Z" transform="translate(-49.481 -7.513)"/><path class="c" d="M127.544,13.557a6.046,6.046,0,0,0-1.1-3.474l-2.251,2.252a3.2,3.2,0,0,1-4.17,4.17l-1.57,1.57v0a1.149,1.149,0,0,1-.765.294,1.168,1.168,0,0,1-.638-.192,6.351,6.351,0,0,0,4.188,1.567,6.246,6.246,0,0,0,6.307-6.185M124.9,8.842a1.152,1.152,0,0,1,.628.187,6.351,6.351,0,0,0-4.288-1.658,6.248,6.248,0,0,0-6.309,6.186,6.065,6.065,0,0,0,1.182,3.594l2.239-2.238a3.192,3.192,0,0,1,4.257-4.255l1.5-1.509,0,0a1.149,1.149,0,0,1,.783-.311" transform="translate(-53.544 -7.371)"/></g></g></svg>