<?xml version="1.0" encoding="utf-8"?>
<!-- Generator: Adobe Illustrator 23.0.3, SVG Export Plug-In . SVG Version: 6.00 Build 0)  -->
<svg version="1.1" id="Layer_1" xmlns="http://www.w3.org/2000/svg" xmlns:xlink="http://www.w3.org/1999/xlink" x="0px" y="0px"
	 viewBox="0 0 367.2 489.7" style="enable-background:new 0 0 367.2 489.7;" xml:space="preserve">
<style type="text/css">
	.st0{fill:#4063AD;}
	.st1{fill:#B08B72;}
	.st2{fill:#EED7C9;}
	.st3{fill:#060808;}
	.st4{fill:#72482C;}
	.st5{fill:#B7696A;}
</style>
<g>
	<g>
		<rect y="183.7" class="st0" width="30.6" height="30.6"/>
		<g>
			<rect x="306" y="183.7" class="st0" width="30.6" height="30.6"/>
			<rect x="336.6" y="214.3" class="st0" width="30.6" height="30.6"/>
		</g>
		<rect x="61.4" y="214.3" class="st1" width="30.6" height="30.6"/>
		<polygon class="st1" points="153.1,153.1 122.5,153.1 122.5,183.7 153.1,183.7 183.7,183.7 183.7,153.1 		"/>
		<rect x="183.7" y="122.6" class="st1" width="30.6" height="30.6"/>
		<polygon class="st1" points="306,214.3 306,244.9 306,275.5 306,306.1 336.6,306.1 336.6,275.5 336.6,244.9 336.6,214.3 		"/>
		<rect x="214.3" y="214.3" class="st1" width="30.6" height="30.6"/>
		<polygon class="st1" points="183.7,306.1 183.7,275.5 183.7,244.9 183.7,214.3 153.1,214.3 153.1,244.9 122.5,244.9 122.5,275.5 
			91.9,275.5 61.4,275.5 30.8,275.5 30.8,306.1 61.4,306.1 61.4,336.7 61.4,367.2 91.9,367.2 91.9,397.8 122.5,397.8 122.5,428.6 
			153.1,428.6 153.1,397.8 153.1,367.2 122.5,367.2 122.5,336.7 153.1,336.7 183.7,336.7 214.3,336.7 214.3,306.1 		"/>
		<g>
			<polygon class="st1" points="183.7,459.1 183.7,489.7 244.9,489.7 244.9,459.1 214.3,459.1 			"/>
		</g>
		<rect x="244.9" y="214.3" class="st2" width="30.6" height="30.6"/>
		<polygon class="st2" points="275.5,153.1 275.5,122.6 244.9,122.6 244.9,92 214.3,92 214.3,122.6 214.3,153.1 183.7,153.1 
			183.7,183.7 214.3,183.7 244.9,183.7 275.5,183.7 306,183.7 306,153.1 		"/>
		<rect x="244.9" y="214.3" class="st2" width="30.6" height="30.6"/>
		<rect x="91.9" y="214.3" class="st2" width="30.6" height="30.6"/>
		<g>
			<rect x="244.9" y="397.8" class="st3" width="30.6" height="30.6"/>
			<rect x="91.9" y="397.8" class="st3" width="30.6" height="30.6"/>
			<polygon class="st4" points="183.7,428.6 153.1,428.6 122.5,428.6 122.5,459.1 122.5,489.7 153.1,489.7 183.7,489.7 183.7,459.1 
				214.3,459.1 244.9,459.1 244.9,428.6 214.3,428.6 			"/>
		</g>
		<polygon class="st2" points="275.5,244.9 275.5,275.5 244.9,275.5 214.3,275.5 214.3,244.9 183.7,244.9 183.7,275.5 183.7,306.1 
			214.3,306.1 214.3,336.7 244.9,336.7 244.9,367.2 214.3,367.2 214.3,397.8 183.7,397.8 153.1,397.8 153.1,428.6 183.7,428.6 
			214.3,428.6 244.9,428.6 244.9,397.8 275.5,397.8 275.5,367.2 306,367.2 306,336.7 306,306.1 306,275.5 306,244.9 		"/>
		<polygon class="st5" points="214.3,336.7 183.7,336.7 153.1,336.7 122.5,336.7 122.5,367.2 153.1,367.2 153.1,397.8 183.7,397.8 
			214.3,397.8 214.3,367.2 244.9,367.2 244.9,336.7 		"/>
		<polygon class="st3" points="214.3,244.9 214.3,275.5 244.9,275.5 275.5,275.5 275.5,244.9 244.9,244.9 		"/>
		<polygon class="st3" points="336.6,92 336.6,61.2 306,61.2 306,30.7 275.5,30.7 275.5,0.1 244.9,0.1 214.3,0.1 183.7,0.1 
			153.1,0.1 122.5,0.1 91.9,0.1 91.9,30.7 61.4,30.7 61.4,61.2 30.8,61.2 30.8,92 30.8,122.6 0,122.6 0,153.1 0,183.7 30.8,183.7 
			30.8,214.3 0,214.3 0,244.9 0,275.5 0,306.1 0,336.7 30.8,336.7 30.8,367.2 30.8,397.8 61.4,397.8 61.4,397.8 61.4,428.6 
			61.4,428.6 61.4,428.6 91.9,428.6 122.5,428.6 122.5,428.6 91.9,428.6 91.9,397.8 91.9,367.2 61.4,367.2 61.4,336.7 61.4,306.1 
			30.8,306.1 30.8,275.5 61.4,275.5 91.9,275.5 122.5,275.5 122.5,244.9 91.9,244.9 61.4,244.9 61.4,214.3 91.9,214.3 122.5,214.3 
			122.5,244.9 153.1,244.9 153.1,214.3 183.7,214.3 183.7,244.9 214.3,244.9 214.3,214.3 244.9,214.3 275.5,214.3 275.5,244.9 
			306,244.9 306,214.3 306,183.7 275.5,183.7 244.9,183.7 214.3,183.7 183.7,183.7 153.1,183.7 122.5,183.7 122.5,153.1 
			153.1,153.1 183.7,153.1 183.7,122.6 214.3,122.6 214.3,92 244.9,92 244.9,122.6 275.5,122.6 275.5,153.1 306,153.1 306,183.7 
			336.6,183.7 336.6,214.3 367.4,214.3 367.4,183.7 367.4,153.1 367.4,122.6 367.4,92 		"/>
		<polyline class="st3" points="367.4,244.9 336.6,244.9 336.6,306.1 306,306.1 306,367.2 275.5,367.2 275.5,428.6 275.5,428.6 
			306,428.6 306,397.8 336.6,397.8 336.6,397.8 336.6,336.7 367.4,336.7 		"/>
	</g>
</g>
</svg>
